<svg xmlns="http://www.w3.org/2000/svg" xmlns:xlink="http://www.w3.org/1999/xlink" viewBox="0 0 29.1 48.61"><defs><style>.cls-1{fill:#fff;}.cls-2{mask:url(#mask);}.cls-3{fill:#d8d8d8;}.cls-4{fill:#535353;}</style><mask id="mask" x="1" y="0.43" width="27.09" height="47.18" maskUnits="userSpaceOnUse"><g id="mask-2"><path id="path-1" class="cls-1" d="M20.43,1S11.81.43,9.6,8.84c0,0-.8,2.2-.69,7.64L1,16.5v7.11l7.91,0v24H19v-24h8V16.48H19V12.6c0-2.51,1.36-4.91,5.34-4.91h3.76V1Z"/></g></mask></defs><title>facebook</title><g id="Layer_2" data-name="Layer 2"><g id="Layer_1-2" data-name="Layer 1"><g id="outlined"><g id="Imported-Layers"><g id="Group-7"><g class="cls-2"><path id="Fill-5" class="cls-3" d="M1,.43H28.09V47.61H1Z"/></g></g><path id="Fill-8" class="cls-4" d="M20,48.61H7.91v-24L0,24.61V15.5l7.9,0c0-4.83.73-6.89.76-7C10.78.41,18.54,0,20.08,0h9V8.69H24.34C20.75,8.69,20,10.82,20,12.6v2.87h8v9.13H20v24Zm-10.09-2H18v-24h8V17.48H18V12.6c0-2.86,1.66-5.91,6.34-5.91H27.1V2H20.43c-.92,0-8-.12-9.86,7.08,0,.1-.76,2.25-.66,7.37l0,1L2,17.5V22.6l7.91,0v24Z"/></g></g></g></g></svg>