<svg xmlns="http://www.w3.org/2000/svg" xmlns:xlink="http://www.w3.org/1999/xlink" viewBox="0 0 55.11 48.71"><defs><style>.cls-1{fill:#fff;}.cls-2{mask:url(#mask);}.cls-3{fill:#d8d8d8;}.cls-4{fill:#535353;}.cls-5{mask:url(#mask-2-2);}.cls-6{mask:url(#mask-3);}</style><mask id="mask" x="14.55" y="27.71" width="8" height="10" maskUnits="userSpaceOnUse"><g id="mask-2"><path id="path-1" class="cls-1" d="M18.55,37.71c2.21,0,4-2.24,4-5s-1.79-5-4-5-4,2.24-4,5,1.79,5,4,5Z"/></g></mask><mask id="mask-2-2" x="33.55" y="27.71" width="8" height="10" maskUnits="userSpaceOnUse"><g id="mask-4"><path id="path-3" class="cls-1" d="M37.55,37.71c2.21,0,4-2.24,4-5s-1.79-5-4-5-4,2.24-4,5,1.79,5,4,5Z"/></g></mask><mask id="mask-3" x="0.76" y="1.15" width="53.44" height="46.65" maskUnits="userSpaceOnUse"><g id="mask-6"><path id="path-5" class="cls-1" d="M16,22.84c2.79-.07,5.59.16,8.38.18,3.08,0,6.16-.07,9.24-.13,1.77,0,3.54-.15,5.31-.18,4.78-.08,7.66,4.39,8.1,7.63a13.7,13.7,0,0,1-.64,6.21,8.44,8.44,0,0,1-5.64,5.54,31.63,31.63,0,0,1-9.34,1.59c-1.31,0-2.63,0-3.94,0a41.63,41.63,0,0,1-12.05-1.24c-5-1.4-6.8-4.18-7.28-9.27C7.85,30,8.5,27,11,24.73a7.48,7.48,0,0,1,5-1.9ZM4.2,39.47c3.3,5.17,8.22,7.44,13.89,7.93,4.83.41,9.7.3,14.55.31A27.41,27.41,0,0,0,42.82,46,16.2,16.2,0,0,0,52.89,35a30.12,30.12,0,0,0,1.2-9.62,16.53,16.53,0,0,0-3-9.43,3.78,3.78,0,0,1-1-2.86,23.67,23.67,0,0,0-.33-5.38A25,25,0,0,0,48,1.15a21.65,21.65,0,0,0-6.49,2C39.36,4.4,37.3,5.73,35.2,7a1.34,1.34,0,0,1-.85.18,40.16,40.16,0,0,0-13.47,0,1.73,1.73,0,0,1-1.07-.24c-1.11-.66-2.16-1.43-3.28-2.09A24.71,24.71,0,0,0,7.15,1.17c-.1.21-.18.37-.24.53A30.66,30.66,0,0,0,5.06,10.4a15.86,15.86,0,0,0,0,3.27,1.59,1.59,0,0,1-.35,1.4,16,16,0,0,0-2.77,5.05A23.44,23.44,0,0,0,1.36,31,21,21,0,0,0,4.2,39.47Z"/></g></mask></defs><title>github</title><g id="Layer_2" data-name="Layer 2"><g id="Layer_1-2" data-name="Layer 1"><g id="outlined"><g id="Imported-Layers"><g id="Group-137"><g class="cls-2"><path id="Fill-135" class="cls-3" d="M14.55,27.71h8v10h-8Z"/></g></g><path id="Fill-138" class="cls-4" d="M18.55,38.71c-2.76,0-5-2.69-5-6s2.24-6,5-6,5,2.69,5,6-2.24,6-5,6Zm0-10c-1.65,0-3,1.79-3,4s1.35,4,3,4,3-1.79,3-4-1.35-4-3-4Z"/><g id="Group-141"><g class="cls-5"><path id="Fill-139" class="cls-3" d="M33.55,27.71h8v10h-8Z"/></g></g><path id="Fill-142" class="cls-4" d="M37.55,38.71c-2.76,0-5-2.69-5-6s2.24-6,5-6,5,2.69,5,6-2.24,6-5,6Zm0-10c-1.65,0-3,1.79-3,4s1.35,4,3,4,3-1.79,3-4-1.35-4-3-4Z"/><g id="Group-145"><g class="cls-6"><path id="Fill-143" class="cls-3" d="M.76,1.15H54.2V47.8H.76Z"/></g></g><path id="Fill-146" class="cls-4" d="M27.8,48.71c-3.14,0-6.5,0-9.79-.32C11.47,47.83,6.55,45,3.35,40a21.51,21.51,0,0,1-3-8.86A24.25,24.25,0,0,1,1,19.82a16.89,16.89,0,0,1,2.94-5.37c.15-.18.19-.26.14-.64a16.23,16.23,0,0,1,0-3.38A32,32,0,0,1,6,1.35c.05-.14.11-.27.19-.42L6.55.08l.73.09A25.64,25.64,0,0,1,17,4c.6.35,1.18.74,1.77,1.12s1,.66,1.52,1a.85.85,0,0,0,.38.11,41.39,41.39,0,0,1,13.83,0,.45.45,0,0,0,.16,0c.83-.5,1.66-1,2.49-1.52,1.24-.76,2.51-1.56,3.8-2.3a20.16,20.16,0,0,1,6.11-2L48.56,0l.33.76a26.09,26.09,0,0,1,1.87,6.82l0,.12a23.91,23.91,0,0,1,.32,5.49,2.82,2.82,0,0,0,.78,2.18,17.6,17.6,0,0,1,3.23,10,31.29,31.29,0,0,1-1.24,9.94A17.23,17.23,0,0,1,43.19,47,28,28,0,0,1,32.73,48.7H27.8ZM7.77,2.27a29.79,29.79,0,0,0-1.71,8.2,15.21,15.21,0,0,0,0,3.06,2.56,2.56,0,0,1-.56,2.17,14.94,14.94,0,0,0-2.61,4.74,22.06,22.06,0,0,0-.53,10.41A19.65,19.65,0,0,0,5,38.93c2.88,4.52,7.18,7,13.14,7.47,3.22.27,6.53.31,9.62.31h4.85a26.24,26.24,0,0,0,9.81-1.59,15.14,15.14,0,0,0,9.47-10.4,29.26,29.26,0,0,0,1.16-9.31,15.43,15.43,0,0,0-2.84-8.87A4.77,4.77,0,0,1,49.09,13a22.46,22.46,0,0,0-.31-5l0-.12A24.37,24.37,0,0,0,47.35,2.3,17.89,17.89,0,0,0,42,4c-1.26.73-2.5,1.5-3.75,2.27L35.72,7.85a2.36,2.36,0,0,1-1.53.3A39.38,39.38,0,0,0,21,8.13a2.73,2.73,0,0,1-1.75-.37c-.54-.33-1.07-.67-1.6-1S16.59,6,16,5.68a25.08,25.08,0,0,0-8.25-3.4ZM29.93,44.71H26.21a39.56,39.56,0,0,1-11-1.29C10,42,7.7,39,7.16,33.28c-.37-4,.66-7,3.15-9.28A8.43,8.43,0,0,1,16,21.84c1.63,0,3.29,0,4.89.08,1.17,0,2.35.09,3.52.09h.7c2.34,0,4.74-.05,7-.1l1.47,0c.84,0,1.69-.05,2.53-.09s1.85-.08,2.78-.09h.15c5.38,0,8.48,5,9,8.5a14.59,14.59,0,0,1-.68,6.66A9.44,9.44,0,0,1,41.09,43a32.48,32.48,0,0,1-9.63,1.64l-1.52,0Zm-2.46-2h2.46l1.46,0a30.56,30.56,0,0,0,9-1.54,7.45,7.45,0,0,0,5-4.91,12.63,12.63,0,0,0,.6-5.77c-.37-2.73-2.85-6.77-7-6.77H39c-.91,0-1.82.05-2.73.09s-1.71.07-2.57.09l-1.46,0c-2.32,0-4.72.1-7.09.1h-.71c-1.19,0-2.39,0-3.59-.1-1.57-.06-3.18-.12-4.76-.08a6.5,6.5,0,0,0-4.38,1.63c-2,1.84-2.82,4.33-2.51,7.62.46,4.9,2.24,7.18,6.56,8.4a37.62,37.62,0,0,0,10.5,1.22h1.27Z"/></g></g></g></g></svg>