<svg xmlns="http://www.w3.org/2000/svg" xmlns:xlink="http://www.w3.org/1999/xlink" viewBox="0 0 40 51.11"><defs><style>.cls-1{fill:#fff;}.cls-2{mask:url(#mask);}.cls-3{fill:#d8d8d8;}.cls-4{fill:#535353;}</style><mask id="mask" x="1" y="6.22" width="28" height="43.88" maskUnits="userSpaceOnUse"><g id="mask-2"><path id="path-1" class="cls-1" d="M20.09,44.48a7.18,7.18,0,0,1-4.51,1.31,8.63,8.63,0,0,1-5.19-1.47,4.3,4.3,0,0,1-2-3.63,3.77,3.77,0,0,1,.46-1.92,4.49,4.49,0,0,1,1-1.27A5.6,5.6,0,0,1,11,36.75l.9-.37a18.06,18.06,0,0,1,2.66-.59,10.9,10.9,0,0,1,1.64-.08,8.88,8.88,0,0,1,.94,0,25.17,25.17,0,0,1,3.43,2.76,4.07,4.07,0,0,1,1,2.77,4,4,0,0,1-1.52,3.2Zm-4-21.91a3.47,3.47,0,0,1-2.2-.76A6.11,6.11,0,0,1,12.33,20a9.4,9.4,0,0,1-1.26-4.48,4.9,4.9,0,0,1,.86-2.95,3.49,3.49,0,0,1,2.68-1.3,3.81,3.81,0,0,1,2.15.72,5.25,5.25,0,0,1,1.48,1.86,10.45,10.45,0,0,1,1.2,4.73,12.53,12.53,0,0,1-.09,1.34,4.12,4.12,0,0,1-.65,1.55,3.7,3.7,0,0,1-2.61,1.12Zm7.18,8.59-2-1.6a11.59,11.59,0,0,1-.87-1,2.15,2.15,0,0,1-.53-1.49,2.68,2.68,0,0,1,.52-1.63,8,8,0,0,1,1-1.21c.6-.52,1.17-1,1.7-1.55A15.56,15.56,0,0,0,24.46,21a8.65,8.65,0,0,0,1.37-4.95,6.19,6.19,0,0,0-1.29-4.41,24.29,24.29,0,0,0-1.92-1.75h3.56L29,6.22H17.47a24.71,24.71,0,0,0-4.92.54A12.5,12.5,0,0,0,7.45,9.4a10.51,10.51,0,0,0-3.58,7.7A8.63,8.63,0,0,0,6.4,23.26q2.41,2.84,7,2.9A16.57,16.57,0,0,0,15.27,26q-.16.45-.35,1a3.23,3.23,0,0,0-.22,1.27,4,4,0,0,0,.57,2.18,12.14,12.14,0,0,0,1.11,1.75,44.56,44.56,0,0,0-5.07.5,17.91,17.91,0,0,0-5.88,2.13A8.45,8.45,0,0,0,2,38.32a8.1,8.1,0,0,0-1,3.56,7,7,0,0,0,3,5.64q3,2.53,9,2.58,7.23-.11,11.07-3.46a9.65,9.65,0,0,0,3.7-7.42,8.36,8.36,0,0,0-1.35-4.78,19.57,19.57,0,0,0-3.2-3.29Z"/></g></mask></defs><title>googleplus</title><g id="Layer_2" data-name="Layer 2"><g id="Layer_1-2" data-name="Layer 1"><g id="outlined"><g id="Imported-Layers"><g id="Group-23"><g class="cls-2"><path id="Fill-21" class="cls-3" d="M1,6.22H29V50.11H1Z"/></g></g><path id="Fill-24" class="cls-4" d="M13.06,51.11h0c-4.26,0-7.51-1-9.68-2.82A7.94,7.94,0,0,1,0,41.89a9.11,9.11,0,0,1,1.09-4A9.45,9.45,0,0,1,4.91,34a19,19,0,0,1,6.23-2.26q1.92-.28,3.46-.42l-.21-.4a4.91,4.91,0,0,1-.68-2.64,4.75,4.75,0,0,1,.13-1.15h-.41c-3.37,0-6-1.14-7.78-3.25a9.59,9.59,0,0,1-2.76-6.8A11.52,11.52,0,0,1,6.76,8.68a13.61,13.61,0,0,1,5.58-2.9,25.93,25.93,0,0,1,5.14-.56H29a1,1,0,0,1,.79,1.61L27,10.54a1,1,0,0,1-.79.39h-1l0,0a6.92,6.92,0,0,1,1.33,2.48,6.39,6.39,0,0,1,.28,2.27v.37a9.66,9.66,0,0,1-1.55,5.53,16.68,16.68,0,0,1-1.46,1.77c-.58.55-1.16,1.08-1.77,1.61a7.49,7.49,0,0,0-.77,1,1.75,1.75,0,0,0-.35,1.08,1.14,1.14,0,0,0,.28.82,11.14,11.14,0,0,0,.8.91l1.92,1.57a20.7,20.7,0,0,1,3.36,3.46,9.37,9.37,0,0,1,1.55,5.37,10.65,10.65,0,0,1-4,8.19c-2.73,2.38-6.67,3.63-11.71,3.7ZM15.27,25a1,1,0,0,1,.94,1.34l-.35,1a2.39,2.39,0,0,0-.16.94,3,3,0,0,0,.42,1.64,11.85,11.85,0,0,0,1.06,1.68,1,1,0,0,1-.77,1.61,43.85,43.85,0,0,0-5,.5,17,17,0,0,0-5.53,2,7.5,7.5,0,0,0-3,3A7.21,7.21,0,0,0,2,41.89a6,6,0,0,0,2.63,4.85c1.83,1.54,4.65,2.33,8.42,2.37C17.6,49,21.11,48,23.47,45.9a8.62,8.62,0,0,0,3.36-6.67A7.41,7.41,0,0,0,25.66,35a18.72,18.72,0,0,0-3-3.1l-2-1.6-.08-.07a12.87,12.87,0,0,1-.95-1.07,3.09,3.09,0,0,1-.75-2.11,3.67,3.67,0,0,1,.71-2.22,8.83,8.83,0,0,1,1-1.31c.65-.57,1.21-1.08,1.73-1.58a15,15,0,0,0,1.24-1.51,7.72,7.72,0,0,0,1.18-4.38v-.37a4.42,4.42,0,0,0-.17-1.63,6.16,6.16,0,0,0-.84-1.7l-.3-.28c-.36-.35-1.2-1.16-1.43-1.31a1,1,0,0,1-.42-1.13,1,1,0,0,1,.95-.72h3.06L27,7.22h-9.5a23.82,23.82,0,0,0-4.72.52,11.57,11.57,0,0,0-4.67,2.43A9.43,9.43,0,0,0,4.87,17.1a7.6,7.6,0,0,0,2.25,5.47,7.87,7.87,0,0,0,6.31,2.59A15.92,15.92,0,0,0,15.15,25Zm.33,21.74a9.66,9.66,0,0,1-5.81-1.67,5.25,5.25,0,0,1-2.39-4.43A4.77,4.77,0,0,1,8,38.27a5.4,5.4,0,0,1,1.18-1.51,6.66,6.66,0,0,1,1.43-.92l1-.39a19.27,19.27,0,0,1,2.87-.65,12.59,12.59,0,0,1,1.83-.09,9.91,9.91,0,0,1,1,0,1,1,0,0,1,.46.17,25.61,25.61,0,0,1,3.58,2.88,5.08,5.08,0,0,1,1.32,3.47,4.93,4.93,0,0,1-1.88,4,8.17,8.17,0,0,1-5.14,1.53ZM16,36.7c-.27,0-.71,0-1.33.09a17.45,17.45,0,0,0-2.46.55l-.79.33a4.54,4.54,0,0,0-.94.61,3.48,3.48,0,0,0-.73,1,2.84,2.84,0,0,0-.34,1.45A3.33,3.33,0,0,0,11,43.5a7.72,7.72,0,0,0,4.62,1.28,6.25,6.25,0,0,0,3.87-1.08,3,3,0,0,0,1.15-2.43,3.07,3.07,0,0,0-.79-2.11,23.54,23.54,0,0,0-3-2.44c-.21,0-.45,0-.71,0Zm.16-13.12a4.49,4.49,0,0,1-2.85-1,7.14,7.14,0,0,1-1.83-2.14,10.45,10.45,0,0,1-1.39-5,5.89,5.89,0,0,1,1-3.51l.06-.08a4.47,4.47,0,0,1,3.42-1.65h.06a4.81,4.81,0,0,1,2.71.91,6.31,6.31,0,0,1,1.79,2.23,11.46,11.46,0,0,1,1.3,5.17A13.66,13.66,0,0,1,20.35,20a5.16,5.16,0,0,1-.81,2l-.12.15a4.68,4.68,0,0,1-3.29,1.43ZM12.73,13.16a3.89,3.89,0,0,0-.66,2.31,8.47,8.47,0,0,0,1.14,4A5.11,5.11,0,0,0,14.52,21a2.47,2.47,0,0,0,1.59.54,2.68,2.68,0,0,0,1.83-.76,3.07,3.07,0,0,0,.44-1.09c0-.42.07-.83.07-1.16a9.5,9.5,0,0,0-1.09-4.28,4.29,4.29,0,0,0-1.2-1.52,2.77,2.77,0,0,0-1.54-.51,2.47,2.47,0,0,0-1.88.91Z"/><path id="Fill-25" class="cls-4" d="M35,0h2V8H35Z"/><path id="Fill-26" class="cls-4" d="M32,3h8V5H32Z"/></g></g></g></g></svg>