<svg xmlns="http://www.w3.org/2000/svg" xmlns:xlink="http://www.w3.org/1999/xlink" viewBox="0 0 52.85 44.99"><defs><style>.cls-1{fill:#fff;}.cls-2{mask:url(#mask);}.cls-3{fill:#d8d8d8;}.cls-4{fill:#535353;}</style><mask id="mask" x="0.21" y="1" width="51.64" height="43.99" maskUnits="userSpaceOnUse"><g id="mask-2"><path id="path-1" class="cls-1" d="M46.14,7.51s4.08-.33,5.72-1.57c0,0-.39,1.43-5.3,5.94,0,0,1.65,24.37-23.53,30.33,0,0-12.77,2.77-22-4.29,0,0,9.69,1.75,15.14-4.37a9.92,9.92,0,0,1-9.25-7.21s2.66.58,4.23-.15A10.25,10.25,0,0,1,3.3,15.72S5.45,17.32,7.38,17c0,0-7.17-6.19-2.73-13.91,0,0,9.61,11.53,21.52,10.85a10.57,10.57,0,0,1-.32-2.59A10.31,10.31,0,0,1,36.1,1a10.14,10.14,0,0,1,7.3,3.1,11.61,11.61,0,0,0,7-2.25s.16,2.22-4.22,5.66Z"/></g></mask></defs><title>twitter</title><g id="Layer_2" data-name="Layer 2"><g id="Layer_1-2" data-name="Layer 1"><g id="outlined"><g id="Imported-Layers"><g id="Group-3"><g class="cls-2"><path id="Fill-1" class="cls-3" d="M.21,1H51.85V45H.21Z"/></g></g><path id="Fill-4" class="cls-4" d="M17,43.75c-4.57,0-11.16-.87-16.61-5a1,1,0,0,1,.78-1.78,19,19,0,0,0,3,.22c2.89,0,6.74-.54,9.76-2.9a10.68,10.68,0,0,1-8-7.62A1,1,0,0,1,7,25.35,10.93,10.93,0,0,1,2.3,15.7a1,1,0,0,1,1.6-.79,6.53,6.53,0,0,0,.76.47C2.77,12.69.7,8,3.79,2.62a1,1,0,0,1,1.63-.14C5.51,2.59,14.24,12.88,25,13a11.6,11.6,0,0,1-.11-1.61A11.32,11.32,0,0,1,36.1,0,11.07,11.07,0,0,1,43.8,3.1a10.67,10.67,0,0,0,6-2.06,1,1,0,0,1,1.59.75c0,.35,0,1.88-2.07,4.18a6,6,0,0,0,2-.82,1,1,0,0,1,1.57,1.06c-.11.39-.8,2-5.25,6.1.05,3.56-.61,25.27-24.31,30.88a32.07,32.07,0,0,1-6.25.56ZM4.86,39.15A27.6,27.6,0,0,0,17,41.75a30.79,30.79,0,0,0,5.81-.51c10.09-2.39,17-8,20.49-16.8A31.77,31.77,0,0,0,45.55,12a1,1,0,0,1,.32-.8C47.25,9.89,48.25,8.88,49,8.09a22.42,22.42,0,0,1-2.76.41,1,1,0,0,1-.7-1.78A16.17,16.17,0,0,0,48.15,4.2a12.51,12.51,0,0,1-4.59.9h-.18a1,1,0,0,1-.7-.3A9.1,9.1,0,0,0,36.1,2a9.32,9.32,0,0,0-9.24,9.39,9.63,9.63,0,0,0,.29,2.34A1,1,0,0,1,26.24,15C16.1,15.55,7.73,7.84,4.9,4.88,2.3,11.17,7.79,16.05,8,16.27A1,1,0,0,1,7.53,18a5.94,5.94,0,0,1-3.14-.54,9.17,9.17,0,0,0,6.93,7.75,1,1,0,0,1,.21,1.89A6,6,0,0,1,9,27.57l-.61,0a8.89,8.89,0,0,0,7.71,5,1,1,0,0,1,.75,1.67c-3.42,3.84-8.3,4.82-12,4.92Z"/></g></g></g></g></svg>